<svg xmlns="http://www.w3.org/2000/svg" width="1388.527" height="812.078" viewBox="0 0 1388.527 812.078">
  <g id="Grupo_2" data-name="Grupo 2" transform="translate(-297.912 -288.884)">
    <path id="Trazado_7" data-name="Trazado 7" d="M320.21,1100.829c-19.705-71.932-34.086-150.318-6.534-219.622,36.1-90.8,136.264-141.651,233.283-153.3s194.706,7.606,292.141,15.014,201.791,1,282.1-54.674c111.377-77.208,147.933-227.663,248.432-318.581,83.8-75.812,210.3-100.811,316.638-62.569" transform="translate(0 0)" fill="none" stroke="#d1a6a6" stroke-miterlimit="10" stroke-width="1"/>
    <path id="Trazado_8" data-name="Trazado 8" d="M345.2,1072.291c-18.642-68.046-32.249-142.2-6.182-207.757,34.149-85.9,128.9-134,220.679-145.022s184.186,7.2,276.359,14.206,190.889.94,266.859-51.722c105.362-73.035,139.943-215.366,235.014-301.372,79.274-71.717,198.939-95.363,299.532-59.188" transform="translate(48.812 28.539)" fill="none" stroke="#d1a6a6" stroke-miterlimit="10" stroke-width="1"/>
    <path id="Trazado_9" data-name="Trazado 9" d="M370.178,1043.751c-17.579-64.16-30.406-134.077-5.829-195.893,32.2-80.994,121.542-126.348,208.078-136.74S746.1,717.9,833,724.511s179.99.888,251.622-48.768c99.344-68.865,131.951-203.066,221.593-284.16,74.746-67.622,187.576-89.918,282.426-55.809" transform="translate(97.624 57.078)" fill="none" stroke="#d1a6a6" stroke-miterlimit="10" stroke-width="1"/>
    <path id="Trazado_10" data-name="Trazado 10" d="M395.163,1015.212c-16.516-60.274-28.566-125.955-5.476-184.028,30.249-76.088,114.18-118.7,195.474-128.457s163.151,6.374,244.8,12.581,169.089.834,236.384-45.813c93.328-64.7,123.958-190.769,208.17-266.954,70.221-63.526,176.219-84.47,265.323-52.427" transform="translate(146.437 85.617)" fill="none" stroke="#d1a6a6" stroke-miterlimit="10" stroke-width="1"/>
    <path id="Trazado_11" data-name="Trazado 11" d="M420.145,986.673c-15.45-56.388-26.724-117.837-5.124-172.164,28.3-71.184,106.82-111.045,182.873-120.178S750.528,700.3,826.91,706.1s158.187.782,221.14-42.858c87.313-60.526,115.968-178.469,194.752-249.742,65.693-59.431,164.856-79.025,248.217-49.048" transform="translate(195.25 114.156)" fill="none" stroke="#d1a6a6" stroke-miterlimit="10" stroke-width="1"/>
  </g>
</svg>
