<svg xmlns="http://www.w3.org/2000/svg" width="1230.488" height="1145.647" viewBox="0 0 1230.488 1145.647">
  <g id="Grupo_1" data-name="Grupo 1" transform="translate(-45.649 796.76) rotate(-39)">
    <path id="Trazado_2" data-name="Trazado 2" d="M88.7,25.3c105.726-.127,210.529,48.564,278.616,129.449,59.047,70.142,89.457,159.739,140.109,236.167s136.19,143.457,226.328,126.671c61.891-11.525,111.083-60.886,140.188-116.71s41.707-118.465,57.289-179.46,35.378-122.919,75.708-171.257c51.126-61.275,134.129-94.348,213.383-85.023" transform="translate(0 0)" fill="none" stroke="#e3cccc" stroke-miterlimit="10" stroke-width="1"/>
    <path id="Trazado_3" data-name="Trazado 3" d="M102.619,21.435c99.11-.122,197.353,45.522,261.179,121.345,55.351,65.755,83.858,149.742,131.341,221.388S622.8,498.645,707.3,482.91c58.014-10.806,104.131-57.075,131.412-109.4s39.1-111.053,53.7-168.23S925.584,90.051,963.391,44.738c47.926-57.442,125.732-88.444,200.029-79.7" transform="translate(21.49 0.001)" fill="none" stroke="#e3cccc" stroke-miterlimit="10" stroke-width="1"/>
    <path id="Trazado_4" data-name="Trazado 4" d="M116.541,17.572c92.491-.112,184.176,42.485,243.74,113.245,51.657,61.364,78.262,139.743,122.573,206.6s119.142,125.5,198,110.816c54.143-10.083,97.179-53.265,122.639-102.1s36.487-103.638,50.118-157S884.559,81.607,919.843,39.318c44.723-53.6,117.338-82.538,186.674-74.38" transform="translate(42.981 0)" fill="none" stroke="#e3cccc" stroke-miterlimit="10" stroke-width="1"/>
    <path id="Trazado_5" data-name="Trazado 5" d="M130.462,13.708c85.875-.1,171,39.445,226.3,105.144,47.961,56.974,72.663,129.746,113.8,191.825S581.187,427.2,654.4,413.564c50.269-9.361,90.227-49.455,113.866-94.8S802.143,222.545,814.8,173s28.736-99.843,61.494-139.1c41.526-49.77,108.947-76.634,173.32-69.059" transform="translate(64.471 0)" fill="none" stroke="#e3cccc" stroke-miterlimit="10" stroke-width="1"/>
    <path id="Trazado_6" data-name="Trazado 6" d="M144.383,9.846c79.259-.1,157.824,36.405,208.868,97.039,44.265,52.586,67.062,119.752,105.032,177.046s102.1,107.545,169.67,94.959c46.4-8.641,83.276-45.644,105.093-87.49s31.265-88.811,42.948-134.534,26.521-92.148,56.755-128.385C871.074-17.455,933.3-42.249,992.713-35.256" transform="translate(85.961 0.001)" fill="none" stroke="#e3cccc" stroke-miterlimit="10" stroke-width="1"/>
  </g>
</svg>
